<svg xmlns="http://www.w3.org/2000/svg" width="342" height="32" viewBox="0 0 342 32"><title>Remodelista</title><g fill="#383842"><path d="M5.87 31.37H.27c-.18 0-.27 0-.27-.2V.95C0 .82.1.72.32.72 3.16.72 5.58.7 7.95.7c4.45.02 6.62 1.16 8.77 4.16A9.27 9.27 0 0 1 18.4 11c-.23 2.6-1.6 5.03-4.27 6.07 3.44 4.75 7.4 9.02 10.47 13.9.1.27-.2.37-.3.4h-6.92c-3.15-4.18-6.25-8.23-9.2-12.27H6.3s-.18-.04-.18.2v11.85c0 .15-.06.22-.25.22zm.25-18.4c1.67.02 3.94.28 5.24-1.18.75-.8.82-2.2.47-3.08-.82-2.15-3.28-2-5.33-2h-.38v6.24zM32.75.66H52.8c.2.02.23.1.23.2V6.6c0 .2-.03.3-.22.3H38.3v5.78h10.75c.22 0 .22.1.22.22v5.66c0 .2-.03.22-.22.22H38.58v6.42h14.86c.2 0 .2.1.2.22v5.66c0 .2-.04.22-.23.22H32.75c-.2 0-.28 0-.28-.2V.9c0-.2.1-.22.28-.22zm61.64 30.7h-5.63c-.2 0-.28 0-.28-.2V10L79.1 21.46 69.94 10v21.08c0 .22-.03.3-.22.3H64.1c-.2 0-.28 0-.28-.2V.94c0-.12.1-.22.28-.22h5.46c.1 0 .22.13.38.32l9.3 11.3L88.8.7s2.4-.03 5.55 0c.2 0 .22.1.22.2v30.23c.04.15 0 .22-.2.22zm25.4.63c-8.8 0-15.92-7.15-15.92-15.97C103.88 7.23 111 .1 119.8.1c8.78 0 15.9 7.14 15.9 15.93 0 8.82-7.12 15.97-15.9 15.97zm-.02-25.68c-5.33 0-9.65 4.36-9.65 9.68 0 5.34 4.32 9.7 9.65 9.7 5.27 0 9.65-4.36 9.65-9.7-.03-5.32-4.38-9.68-9.65-9.68zm47.67 20.2c-2.87 2.95-6.72 4.7-10.76 4.85h-11.46c-.3 0-.3-.5-.3-.5V1c-.02-.38.4-.28.4-.28H156c7.63.38 13.84 5.38 15.33 12.46 1.07 4.97-.4 9.87-3.88 13.35zM151.1 6.83v18.4h5.65c2.05 0 5.65-1.38 7.45-3.78 2.08-2.85 2.14-6.96.4-9.93-2.77-4.8-8.45-4.7-13.5-4.67zM181.68.67h20.07c.2.03.22.12.22.22V6.6c0 .2-.03.3-.22.3h-14.5v5.78h10.74c.22 0 .22.1.22.22v5.66c0 .2-.03.22-.22.22H187.5v6.42h14.87c.2 0 .2.1.2.22v5.66c0 .2-.04.22-.23.22h-20.67c-.2 0-.28 0-.28-.2V.9c0-.2.08-.22.27-.22zm49.53 30.7h-17.22s-.3 0-.3-.18V.94c0-.12.1-.22.3-.22h5.6c.23 0 .23.1.23.22v24.3h11.4c.2 0 .22.1.22.2v5.64c.03.22-.03.3-.22.3zm16.3 0h-5.6c-.2 0-.3 0-.3-.18V.94c0-.12.1-.22.3-.22h5.6c.23 0 .23.1.23.22v30.2c.03.16-.03.23-.22.23zm20.26.5c-3.34-.18-6.34-1.88-8.1-4.82-.38-.67-.83-1.4-.8-2.22 1.7-1.1 3.44-2.05 5.15-3.07.4.83.6 1.7 1.2 2.47 1.02 1.17 2.37 1.96 4.04 1.7 2.18-.37 4.14-3.06 3-5.2-1.48-2.8-4.82-3.02-7.38-4.28-3.25-1.6-5.55-4.93-5.43-8.44.1-3.4 2.7-6.77 5.97-7.66 4.22-1.1 8.77.5 10.88 4.46.1.03-.03.38-.03.38s-4.14 2.78-4.77 2.94c-.7-1.17-1.67-2.5-3.06-2.5-3.28-.03-4.03 3.07-2.17 4.84 3.47 2.3 8.3 2.18 10.8 6.23 1.78 2.87 2.26 6.95.46 10-2.04 3.3-5.42 5.46-9.74 5.17zm41.1-25.03c-2.96 0-5.83-.04-8.86 0 0 8.1.03 16.16.03 24.3 0 .18-.1.2-.28.2h-5.62c-.2 0-.28 0-.28-.18 0-8.23 0-15.88.03-24.36h-8.93c-.18 0-.28 0-.28-.2V.88c0-.13.1-.22.28-.22h23.92c.2 0 .22.1.22.2v5.7c.05.23-.04.27-.23.27zm32.75 24.54h-6.1l-2.4-6.14h-11.5l-2.36 6.14h-6.68s-.2.03-.1-.22L323.86.9s.08-.18.27-.18h5.9c.32 0 .22-.03.38.22L341.97 31s.22.37-.35.37zM327.36 8.9l-3.85 10.2h7.32l-3.47-10.2z"/></g></svg>
